# xmcd
# 
# Track frame offsets:
#     150
#     17927
#     38659
#     58509
#     74028
#     92623
#     109941
#     134503
#     154323
#     170903
#     190802
#     210615
#     229957
# 
# Disc length: 3271
# 
# Revision: 0
# Processed by: cddbd v1.5.2PL0 Copyright (c) Steve Scherf et al.
# Submitted via: fre:ac v1.1beta1
# 
DISCID=c10cc50d
DTITLE=The Jeff Healey Band - Get Me Some
DYEAR=2000
DGENRE=Blues
TTITLE0=Which One
TTITLE1=Hey Hey
TTITLE2=Love Is The Answer
TTITLE3=My Life Story
TTITLE4=I Tried
TTITLE5=The Damage Is Done
TTITLE6=Feel Better
TTITLE7=Holding On
TTITLE8=I Should Have Told You
TTITLE9=Macon Georgia Blue
TTITLE10=House Is Burning Down
TTITLE11=Runaway Heart
TTITLE12=Rachel's Song
EXTD=YEAR: 2000
EXTT0=
EXTT1=
EXTT2=
EXTT3=
EXTT4=
EXTT5=
EXTT6=
EXTT7=
EXTT8=
EXTT9=
EXTT10=
EXTT11=
EXTT12=
PLAYORDER=
